<svg width="167" height="111" viewBox="0 0 167 111" fill="none" xmlns="http://www.w3.org/2000/svg">
<path d="M38.1085 42.9891C36.3982 42.2616 34.2863 41.8985 31.7726 41.8997H21.6162V64.6753H31.7726C34.2863 64.6753 36.3982 64.3064 38.1085 63.5685C39.8026 62.8467 41.1802 61.567 41.9986 59.955C42.8805 58.2827 43.3221 56.0599 43.3233 53.2866C43.3233 50.4717 42.8817 48.2327 41.9986 46.5696C41.179 44.9663 39.8005 43.6975 38.1085 42.9891ZM38.0925 54.4749C38.0925 55.9495 37.8485 57.1268 37.3605 58.0069C36.8935 58.8719 36.1226 59.5453 35.1878 59.9047C34.2238 60.291 33.0515 60.4835 31.6708 60.4824H26.7381V46.0839H31.6637C33.7703 46.0839 35.3669 46.5297 36.4536 47.4214C37.5402 48.3131 38.0841 49.8165 38.0853 51.9318L38.0925 54.4749Z" fill="white"/>
<path d="M61.3279 49.4752C59.8105 48.1881 57.6021 47.5439 54.7028 47.5427C51.8273 47.5427 49.6362 48.2199 48.1295 49.5741C46.6227 50.9284 45.8699 53.2003 45.8711 56.39C45.8711 59.5126 46.6239 61.7463 48.1295 63.0914C49.635 64.4364 51.8262 65.1071 54.7028 65.1037C57.2629 65.1037 59.2898 64.6364 60.7834 63.702C62.2771 62.7675 63.1834 61.3312 63.5024 59.3929H58.6108C58.4287 60.2313 58.0264 60.8535 57.4039 61.2595C56.7815 61.6654 55.8811 61.8689 54.7028 61.8701C53.4353 61.8701 52.4558 61.5509 51.7643 60.9125C51.0728 60.2741 50.7276 59.1847 50.7288 57.6442V56.8185H63.6042V55.8279C63.6042 52.8812 62.8454 50.7636 61.3279 49.4752ZM51.7643 51.6194C52.4558 51.0597 53.4353 50.7792 54.7028 50.778C56.0406 50.778 57.0427 51.0585 57.7092 51.6194C58.3376 52.1485 58.6661 53.0263 58.7036 54.2441H50.7342C50.7627 53.035 51.1037 52.1572 51.7643 51.6194Z" fill="white"/>
<path d="M82.6174 49.0625C81.4962 48.0494 79.8823 47.5428 77.7757 47.5428C76.6327 47.5254 75.497 47.7215 74.4301 48.1205C73.4735 48.484 72.6547 49.124 72.0843 49.9541C71.9626 50.1342 71.8546 50.3226 71.7611 50.5179V47.973H66.9409V64.6753H71.9004V54.1453C71.9004 52.9576 72.2515 52.1266 72.9537 51.6525C73.6559 51.1783 74.5842 50.9418 75.7387 50.9429C76.4133 50.9255 77.086 51.0205 77.7275 51.224C78.2383 51.394 78.6671 51.7403 78.9326 52.1972C79.2039 52.6598 79.3396 53.2958 79.3396 54.1054V64.6683H84.3009V53.9441C84.2949 51.7016 83.7337 50.0744 82.6174 49.0625Z" fill="white"/>
<path d="M100.563 47.9729V58.5358C100.563 59.7247 100.201 60.5499 99.4758 61.0113C98.751 61.4728 97.8226 61.7041 96.6908 61.7052C96.0287 61.7212 95.3684 61.6322 94.7359 61.4416C94.2239 61.2822 93.7932 60.9399 93.5308 60.484C93.2595 60.0214 93.1238 59.3726 93.1238 58.5376V47.9729H88.1982V58.6677C88.1982 61.0223 88.7582 62.6836 89.8782 63.6516C90.9981 64.6196 92.5894 65.1036 94.652 65.1036C95.8116 65.1219 96.9637 64.9203 98.044 64.5103C99.0028 64.1434 99.8215 63.4976 100.388 62.6611C100.488 62.5093 100.579 62.3518 100.659 62.1892V64.6751H105.48V47.9729H100.563Z" fill="white"/>
<path d="M142.354 59.8474H137.386V64.6752H142.354V59.8474Z" fill="white"/>
<path d="M135.874 49.0867C134.866 48.0632 133.399 47.5514 131.475 47.5514C130.335 47.5294 129.202 47.7287 128.142 48.1377C127.193 48.514 126.386 49.1651 125.832 50.0026C125.704 50.1962 125.591 50.3992 125.496 50.6098C125.279 50.0338 124.942 49.5071 124.507 49.0624C123.488 48.0493 122.017 47.5427 120.092 47.5427C119.035 47.5281 117.987 47.7309 117.016 48.1377C116.104 48.5296 115.335 49.1795 114.809 50.0026C114.716 50.1481 114.63 50.2987 114.554 50.4536V47.9729H109.734V64.6752H114.693V54.1175C114.693 52.9297 114.999 52.1046 115.611 51.642C116.223 51.1794 117.027 50.9481 118.023 50.9481C118.602 50.9309 119.18 51.0265 119.721 51.2291C120.171 51.4138 120.535 51.7553 120.74 52.1867C120.966 52.6377 121.079 53.2813 121.079 54.1175V64.6804H126.039V54.1504C126.039 53.3409 126.18 52.7048 126.464 52.2422C126.731 51.795 127.143 51.4471 127.637 51.2534C128.188 51.0446 128.776 50.9432 129.368 50.955C129.943 50.9364 130.515 51.0321 131.05 51.236C131.496 51.4275 131.857 51.7669 132.069 52.1936C132.307 52.6446 132.426 53.2882 132.426 54.1244V59.8422H137.386V53.9804C137.386 51.7356 136.882 50.1044 135.874 49.0867Z" fill="white"/>
</svg>
